<svg width="203" height="203" viewBox="0 0 203 203" fill="none" xmlns="http://www.w3.org/2000/svg">
  <path
    d="M113.292 13.2468H64.0003C52.9465 13.2468 43.9932 22.1496 43.9932 33.141V142.529C43.9932 153.52 52.9465 162.423 64.0003 162.423H139C150.054 162.423 159.007 153.52 159.007 142.529V58.7038C159.007 53.4289 156.895 48.3689 153.15 44.6335L127.442 19.0707C123.685 15.3353 118.597 13.2468 113.292 13.2468Z"
    fill="url(#paint0_linear_286_141)" />
  <g filter="url(#filter0_b_286_141)">
    <path
      d="M111.745 98.6046V89.0101C111.745 82.3898 106.345 77.0168 99.6922 77.0168H30.9931C24.3402 77.0168 18.9407 82.3898 18.9407 89.0101V174.186C18.9407 182.785 25.9432 189.753 34.5848 189.753H168.415C177.057 189.753 184.059 182.785 184.059 174.186V114.172C184.059 105.573 177.057 98.6046 168.415 98.6046H111.745Z"
      fill="url(#paint1_linear_286_141)" />
    <path
      d="M110.745 98.6046V99.6046H111.745H168.415C176.509 99.6046 183.059 106.13 183.059 114.172V174.186C183.059 182.228 176.509 188.753 168.415 188.753H34.5848C26.4908 188.753 19.9407 182.228 19.9407 174.186V89.0101C19.9407 82.9467 24.8878 78.0168 30.9931 78.0168H99.6922C105.798 78.0168 110.745 82.9467 110.745 89.0101V98.6046Z"
      stroke="url(#paint2_linear_286_141)" stroke-width="2" />
  </g>
  <defs>
    <filter id="filter0_b_286_141" x="0.940674" y="59.0168" width="201.119" height="148.736"
      filterUnits="userSpaceOnUse" color-interpolation-filters="sRGB">
      <feFlood flood-opacity="0" result="BackgroundImageFix" />
      <feGaussianBlur in="BackgroundImageFix" stdDeviation="9" />
      <feComposite in2="SourceAlpha" operator="in" result="effect1_backgroundBlur_286_141" />
      <feBlend mode="normal" in="SourceGraphic" in2="effect1_backgroundBlur_286_141" result="shape" />
    </filter>
    <linearGradient id="paint0_linear_286_141" x1="89.3752" y1="18.2919" x2="130.407" y2="160.313"
      gradientUnits="userSpaceOnUse">
      <stop stop-color="#0EDAFE" />
      <stop offset="1" stop-color="#0724FF" />
    </linearGradient>
    <linearGradient id="paint1_linear_286_141" x1="28.2626" y1="183.388" x2="121.405" y2="46.9681"
      gradientUnits="userSpaceOnUse">
      <stop stop-opacity="0.2" />
      <stop offset="1" stop-opacity="0.49" />
    </linearGradient>
    <linearGradient id="paint2_linear_286_141" x1="30.5962" y1="85.8833" x2="116.279" y2="220.067"
      gradientUnits="userSpaceOnUse">
      <stop />
      <stop offset="1" stop-opacity="0" />
    </linearGradient>
  </defs>
</svg>