<svg width="203" height="203" viewBox="0 0 203 203" fill="none" xmlns="http://www.w3.org/2000/svg">
  <path
    d="M137.947 75.9186C165.826 76.817 188.334 99.7804 188.612 127.566C188.705 137.74 185.88 147.24 180.92 155.313C180.217 156.449 180.084 157.836 180.509 159.091L185.376 173.625C187.047 178.633 182.06 183.297 177.153 181.315L162.126 175.237C160.959 174.762 159.646 174.775 158.518 175.303C151.82 178.448 144.353 180.232 136.475 180.258C108.237 180.39 84.6951 157.757 83.8728 129.641C82.9842 99.5294 107.72 74.9409 137.96 75.9054L137.947 75.9186Z"
    fill="url(#paint0_linear_283_79)" />
  <g filter="url(#filter0_b_283_79)">
    <path
      d="M79.9048 21.2543C43.8449 22.4148 14.7444 52.296 14.3892 88.4542C14.2576 101.694 17.9149 114.063 24.3349 124.546C25.2427 126.023 25.4137 127.83 24.8743 129.478L18.5859 148.401C16.4152 154.916 22.8615 160.981 29.2157 158.397L48.6599 150.498C50.1597 149.891 51.8568 149.891 53.3302 150.59C61.9867 154.678 71.643 156.999 81.8387 157.039C118.359 157.197 148.802 127.764 149.867 91.1707C151.012 51.9796 119.03 19.9884 79.918 21.2543H79.9048Z"
      fill="url(#paint1_linear_283_79)" />
    <path
      d="M15.3891 88.4641L15.3891 88.464C15.739 52.844 44.4072 23.4058 79.921 22.2543H79.9342L79.9504 22.2538C118.483 21.0066 149.995 52.5238 148.868 91.1415C147.818 127.193 117.82 156.195 81.8431 156.039L81.8426 156.039C71.7978 156 62.2855 153.713 53.7572 149.686C52.0123 148.859 50.0233 148.868 48.285 149.571L48.2836 149.572L28.8393 157.47L28.8389 157.471C23.2809 159.731 17.6321 154.427 19.5346 148.717L19.5348 148.717L25.8233 129.794L25.8247 129.789C26.4496 127.88 26.2579 125.766 25.1877 124.024C18.8629 113.696 15.2595 101.511 15.3891 88.4641Z"
      stroke="url(#paint2_linear_283_79)" stroke-width="2" />
  </g>
  <defs>
    <filter id="filter0_b_283_79" x="-3.61426" y="3.21802" width="171.511" height="173.789"
      filterUnits="userSpaceOnUse" color-interpolation-filters="sRGB">
      <feFlood flood-opacity="0" result="BackgroundImageFix" />
      <feGaussianBlur in="BackgroundImageFix" stdDeviation="9" />
      <feComposite in2="SourceAlpha" operator="in" result="effect1_backgroundBlur_283_79" />
      <feBlend mode="normal" in="SourceGraphic" in2="effect1_backgroundBlur_283_79" result="shape" />
    </filter>
    <linearGradient id="paint0_linear_283_79" x1="137.715" y1="92.4455" x2="137.211" y2="176.54"
      gradientUnits="userSpaceOnUse">
      <stop stop-color="#85FFB7" />
      <stop offset="1" stop-color="#30FF80" />
    </linearGradient>
    <linearGradient id="paint1_linear_283_79" x1="22.0361" y1="151.228" x2="144.25" y2="31.034"
      gradientUnits="userSpaceOnUse">
      <stop stop-color="white" stop-opacity="0.2" />
      <stop offset="1" stop-color="white" stop-opacity="0.49" />
    </linearGradient>
    <linearGradient id="paint2_linear_283_79" x1="23.9513" y1="32.0548" x2="139.242" y2="153.29"
      gradientUnits="userSpaceOnUse">
      <stop stop-color="white" />
      <stop offset="1" stop-color="white" stop-opacity="0" />
    </linearGradient>
  </defs>
</svg>