<svg width="54" height="54" viewBox="0 0 54 54" fill="none" xmlns="http://www.w3.org/2000/svg">
    <rect width="54" height="54" rx="6" fill="url(#paint0_linear_112_164)" />
    <path fill-rule="evenodd" clip-rule="evenodd"
        d="M23.2501 17.625C23.4538 17.625 23.6519 17.6914 23.8145 17.8141C23.9771 17.9368 24.0954 18.1091 24.1513 18.305L25.1676 21.8625C25.3864 22.6286 25.7969 23.3264 26.3603 23.8898C26.9237 24.4532 27.6214 24.8637 28.3876 25.0825L31.9451 26.0988C32.1408 26.1548 32.313 26.2731 32.4355 26.4357C32.5581 26.5983 32.6244 26.7964 32.6244 27C32.6244 27.2036 32.5581 27.4017 32.4355 27.5643C32.313 27.7269 32.1408 27.8452 31.9451 27.9012L28.3876 28.9175C27.6214 29.1363 26.9237 29.5468 26.3603 30.1102C25.7969 30.6736 25.3864 31.3714 25.1676 32.1375L24.1513 35.695C24.0952 35.8907 23.977 36.0629 23.8144 36.1855C23.6518 36.308 23.4537 36.3743 23.2501 36.3743C23.0464 36.3743 22.8484 36.308 22.6858 36.1855C22.5232 36.0629 22.4049 35.8907 22.3488 35.695L21.3326 32.1375C21.1137 31.3714 20.7033 30.6736 20.1398 30.1102C19.5764 29.5468 18.8787 29.1363 18.1126 28.9175L14.5551 27.9012C14.3593 27.8452 14.1871 27.7269 14.0646 27.5643C13.942 27.4017 13.8757 27.2036 13.8757 27C13.8757 26.7964 13.942 26.5983 14.0646 26.4357C14.1871 26.2731 14.3593 26.1548 14.5551 26.0988L18.1126 25.0825C18.8787 24.8637 19.5764 24.4532 20.1398 23.8898C20.7033 23.3264 21.1137 22.6286 21.3326 21.8625L22.3488 18.305C22.4048 18.1091 22.523 17.9368 22.6856 17.8141C22.8482 17.6914 23.0464 17.625 23.2501 17.625ZM34.5001 13.875C34.7092 13.8749 34.9124 13.9447 35.0773 14.0734C35.2422 14.202 35.3593 14.3821 35.4101 14.585L35.7326 15.88C36.0276 17.055 36.9451 17.9725 38.1201 18.2675L39.4151 18.59C39.6183 18.6404 39.7989 18.7573 39.928 18.9222C40.057 19.0872 40.1272 19.2906 40.1272 19.5C40.1272 19.7094 40.057 19.9128 39.928 20.0778C39.7989 20.2427 39.6183 20.3596 39.4151 20.41L38.1201 20.7325C36.9451 21.0275 36.0276 21.945 35.7326 23.12L35.4101 24.415C35.3597 24.6183 35.2427 24.7989 35.0778 24.9279C34.9129 25.057 34.7095 25.1271 34.5001 25.1271C34.2906 25.1271 34.0872 25.057 33.9223 24.9279C33.7574 24.7989 33.6404 24.6183 33.5901 24.415L33.2676 23.12C33.1233 22.543 32.825 22.0161 32.4045 21.5956C31.9839 21.1751 31.457 20.8767 30.8801 20.7325L29.5851 20.41C29.3818 20.3596 29.2012 20.2427 29.0721 20.0778C28.9431 19.9128 28.873 19.7094 28.873 19.5C28.873 19.2906 28.9431 19.0872 29.0721 18.9222C29.2012 18.7573 29.3818 18.6404 29.5851 18.59L30.8801 18.2675C31.457 18.1233 31.9839 17.8249 32.4045 17.4044C32.825 16.9839 33.1233 16.457 33.2676 15.88L33.5901 14.585C33.6408 14.3821 33.7579 14.202 33.9228 14.0734C34.0877 13.9447 34.2909 13.8749 34.5001 13.875ZM32.6251 30.75C32.822 30.7499 33.0139 30.8118 33.1736 30.9269C33.3334 31.042 33.4528 31.2044 33.5151 31.3912L34.0076 32.87C34.1951 33.4287 34.6326 33.8687 35.1926 34.055L36.6713 34.5487C36.8575 34.6113 37.0194 34.7307 37.1341 34.8902C37.2487 35.0496 37.3104 35.2411 37.3104 35.4375C37.3104 35.6339 37.2487 35.8254 37.1341 35.9848C37.0194 36.1443 36.8575 36.2637 36.6713 36.3263L35.1926 36.82C34.6338 37.0075 34.1938 37.445 34.0076 38.005L33.5138 39.4837C33.4513 39.67 33.3319 39.8318 33.1724 39.9465C33.0129 40.0612 32.8215 40.1229 32.6251 40.1229C32.4286 40.1229 32.2372 40.0612 32.0777 39.9465C31.9182 39.8318 31.7988 39.67 31.7363 39.4837L31.2426 38.005C31.1505 37.7291 30.9955 37.4784 30.7898 37.2727C30.5841 37.0671 30.3335 36.9121 30.0576 36.82L28.5788 36.3263C28.3926 36.2637 28.2307 36.1443 28.1161 35.9848C28.0014 35.8254 27.9397 35.6339 27.9397 35.4375C27.9397 35.2411 28.0014 35.0496 28.1161 34.8902C28.2307 34.7307 28.3926 34.6113 28.5788 34.5487L30.0576 34.055C30.6163 33.8675 31.0563 33.43 31.2426 32.87L31.7363 31.3912C31.7985 31.2046 31.9177 31.0423 32.0772 30.9272C32.2367 30.8122 32.4284 30.7501 32.6251 30.75Z"
        fill="white" />
    <defs>
        <linearGradient id="paint0_linear_112_164" x1="39.6118" y1="4.41112e-07" x2="-1.3055"
            y2="13.2664" gradientUnits="userSpaceOnUse">
            <stop stop-color="#B96BF1" />
            <stop offset="1" stop-color="#8C54FF" />
        </linearGradient>
    </defs>
</svg>
    