<svg width="203" height="203" viewBox="0 0 203 203" fill="none" xmlns="http://www.w3.org/2000/svg">
  <path
    d="M108.079 87.4864C113.61 93.0174 113.942 101.978 116.771 108.789C119.694 115.853 125.684 122.474 125.684 129.996C125.684 137.518 119.694 144.14 116.771 151.203C113.958 158.014 113.626 166.959 108.079 172.506C102.532 178.052 93.588 178.369 86.7769 181.197C79.7131 184.121 73.0917 190.11 65.5695 190.11C58.0474 190.11 51.426 184.121 44.3621 181.197C37.5511 178.384 28.6067 178.052 23.0599 172.506C17.5289 166.975 17.1971 158.014 14.3684 151.203C11.5397 144.392 5.45557 137.518 5.45557 129.996C5.45557 122.474 11.4448 115.853 14.3684 108.789C17.1813 101.978 17.5131 93.0332 23.0599 87.4864C28.5909 81.9554 37.5511 81.6236 44.3621 78.7949C51.426 75.8714 58.0474 69.8821 65.5695 69.8821C73.0917 69.8821 79.7131 75.8714 86.7769 78.7949C93.588 81.6078 102.532 81.9396 108.079 87.4864Z"
    fill="url(#paint0_linear_286_160)" />
  <path
    d="M197.539 50.4129C197.713 55.4856 193.92 59.863 192.261 64.3352C190.522 68.9654 190.443 74.7492 187.125 78.3049C183.806 81.8605 178.038 82.3504 173.55 84.4048C169.204 86.3801 165.112 90.4731 160.039 90.6627C154.966 90.8523 150.589 87.0439 146.117 85.3846C141.644 83.7253 135.702 83.5672 132.147 80.2486C128.591 76.93 128.101 71.162 126.047 66.674C124.072 62.3282 119.979 58.2353 119.789 53.1626C119.615 48.0899 123.408 43.7125 125.067 39.2403C126.805 34.6101 126.884 28.8262 130.203 25.2706C133.522 21.7149 139.29 21.2251 143.778 19.1707C148.108 17.1795 152.216 13.0866 157.273 12.897C162.33 12.7073 166.723 16.5158 171.196 18.1751C175.668 19.8344 181.61 19.9924 185.165 23.311C188.721 26.6296 189.211 32.3977 191.265 36.8857C193.241 41.2314 197.333 45.3244 197.523 50.3971L197.539 50.4129Z"
    fill="url(#paint1_linear_286_160)" />
  <g filter="url(#filter0_b_286_160)">
    <path
      d="M182.226 157.303L167.561 142.638C189.053 113.34 186.572 71.9363 160.071 45.4507C130.82 16.1997 83.3954 16.1997 54.1443 45.4507C24.8933 74.7018 24.8933 122.126 54.1443 151.361C79.8713 177.088 119.679 180.17 148.787 160.622L163.848 175.682C168.92 180.755 177.154 180.755 182.226 175.682C187.299 170.609 187.299 162.376 182.226 157.303Z"
      fill="url(#paint2_linear_286_160)" />
    <path
      d="M166.755 142.047L166.247 142.739L166.854 143.345L181.519 158.01C186.201 162.692 186.201 170.293 181.519 174.975C176.837 179.657 169.237 179.657 164.555 174.975L149.495 159.915L148.913 159.333L148.23 159.792C119.51 179.079 80.2338 176.037 54.8514 150.654L54.8513 150.654C25.9911 121.809 25.9908 75.0185 54.8514 46.1578C83.712 17.2973 130.503 17.2973 159.364 46.1578L159.364 46.1581C185.51 72.2889 187.96 113.14 166.755 142.047Z"
      stroke="url(#paint3_linear_286_160)" stroke-width="2" />
  </g>
  <defs>
    <filter id="filter0_b_286_160" x="14.2061" y="5.51245" width="189.825" height="191.974"
      filterUnits="userSpaceOnUse" color-interpolation-filters="sRGB">
      <feFlood flood-opacity="0" result="BackgroundImageFix" />
      <feGaussianBlur in="BackgroundImageFix" stdDeviation="9" />
      <feComposite in2="SourceAlpha" operator="in" result="effect1_backgroundBlur_286_160" />
      <feBlend mode="normal" in="SourceGraphic" in2="effect1_backgroundBlur_286_160" result="shape" />
    </filter>
    <linearGradient id="paint0_linear_286_160" x1="93.667" y1="83.0932" x2="37.8514" y2="176.267"
      gradientUnits="userSpaceOnUse">
      <stop stop-color="#10994D" />
      <stop offset="1" stop-color="#00FF79" />
    </linearGradient>
    <linearGradient id="paint1_linear_286_160" x1="192.304" y1="41.8494" x2="124.752" y2="61.3504"
      gradientUnits="userSpaceOnUse">
      <stop stop-color="#10E4E2" />
      <stop offset="1" stop-color="#00FF79" />
    </linearGradient>
    <linearGradient id="paint2_linear_286_160" x1="40.8903" y1="170.681" x2="179.24" y2="34.2377"
      gradientUnits="userSpaceOnUse">
      <stop stop-opacity="0.2" />
      <stop offset="1" stop-opacity="0.49" />
    </linearGradient>
    <linearGradient id="paint3_linear_286_160" x1="43.0644" y1="35.7795" x2="173.552" y2="173.379"
      gradientUnits="userSpaceOnUse">
      <stop />
      <stop offset="1" stop-opacity="0" />
    </linearGradient>
  </defs>
</svg>