<svg width="203" height="203" viewBox="0 0 203 203" fill="none" xmlns="http://www.w3.org/2000/svg">
  <path
    d="M55.7773 113.678V64.7232C55.7773 39.4748 76.2519 19.0002 101.5 19.0002C126.749 19.0002 147.223 39.4748 147.223 64.7232V113.665"
    stroke="url(#paint0_linear_283_86)" stroke-width="18.3" stroke-miterlimit="10" />
  <g filter="url(#filter0_b_283_86)">
    <path
      d="M161.531 83.9263H41.4692C32.4245 83.9263 25.0923 91.2585 25.0923 100.303V167.623C25.0923 176.668 32.4245 184 41.4692 184H161.531C170.576 184 177.908 176.668 177.908 167.623V100.303C177.908 91.2585 170.576 83.9263 161.531 83.9263Z"
      fill="url(#paint1_linear_283_86)" />
    <path
      d="M41.4692 84.9263H161.531C170.023 84.9263 176.908 91.8108 176.908 100.303V167.623C176.908 176.116 170.023 183 161.531 183H41.4692C32.9768 183 26.0923 176.116 26.0923 167.623V100.303C26.0923 91.8108 32.9768 84.9263 41.4692 84.9263Z"
      stroke="url(#paint2_linear_283_86)" stroke-width="2" />
  </g>
  <defs>
    <filter id="filter0_b_283_86" x="7.09229" y="65.9263" width="188.815" height="136.074"
      filterUnits="userSpaceOnUse" color-interpolation-filters="sRGB">
      <feFlood flood-opacity="0" result="BackgroundImageFix" />
      <feGaussianBlur in="BackgroundImageFix" stdDeviation="9" />
      <feComposite in2="SourceAlpha" operator="in" result="effect1_backgroundBlur_283_86" />
      <feBlend mode="normal" in="SourceGraphic" in2="effect1_backgroundBlur_283_86" result="shape" />
    </filter>
    <linearGradient id="paint0_linear_283_86" x1="43.4169" y1="60.1522" x2="159.584" y2="60.1522"
      gradientUnits="userSpaceOnUse">
      <stop offset="0.51" stop-color="#9820FF" />
      <stop offset="1" stop-color="#DB0EFE" />
    </linearGradient>
    <linearGradient id="paint1_linear_283_86" x1="33.7196" y1="178.35" x2="115.093" y2="54.0906"
      gradientUnits="userSpaceOnUse">
      <stop stop-color="white" stop-opacity="0.2" />
      <stop offset="1" stop-color="white" stop-opacity="0.49" />
    </linearGradient>
    <linearGradient id="paint2_linear_283_86" x1="35.8793" y1="91.7969" x2="110.563" y2="213.736"
      gradientUnits="userSpaceOnUse">
      <stop stop-color="white" />
      <stop offset="1" stop-color="white" stop-opacity="0" />
    </linearGradient>
  </defs>
</svg>