<svg width="24" height="24" viewBox="0 0 24 24" fill="none" xmlns="http://www.w3.org/2000/svg">
    <path
        d="M5.625 1.5C4.589 1.5 3.75 2.34 3.75 3.375V20.625C3.75 21.66 4.59 22.5 5.625 22.5H18.375C19.41 22.5 20.25 21.66 20.25 20.625V12.75C20.25 11.7554 19.8549 10.8016 19.1517 10.0983C18.4484 9.39509 17.4946 9 16.5 9H14.625C14.1277 9 13.6508 8.80246 13.2992 8.45083C12.9475 8.0992 12.75 7.62228 12.75 7.125V5.25C12.75 4.25544 12.3549 3.30161 11.6517 2.59835C10.9484 1.89509 9.99456 1.5 9 1.5H5.625Z"
        fill="url(#paint0_linear_63_115)" />
    <path
        d="M12.9709 1.81598C13.7975 2.76894 14.2517 3.98853 14.2499 5.24998V7.12498C14.2499 7.33198 14.4179 7.49998 14.6249 7.49998H16.4999C17.7614 7.49823 18.981 7.95246 19.9339 8.77898C19.494 7.10569 18.6175 5.57928 17.3941 4.35587C16.1706 3.13245 14.6442 2.25594 12.9709 1.81598Z"
        fill="url(#paint1_linear_63_115)" />
    <defs>
        <linearGradient id="paint0_linear_63_115" x1="15.8536" y1="1.5" x2="2.87883" y2="4.80529"
            gradientUnits="userSpaceOnUse">
            <stop stop-color="#B96BF1" />
            <stop offset="1" stop-color="#8C54FF" />
        </linearGradient>
        <linearGradient id="paint1_linear_63_115" x1="18.0787" y1="1.81598" x2="12.8026"
            y2="3.52661" gradientUnits="userSpaceOnUse">
            <stop stop-color="#B96BF1" />
            <stop offset="1" stop-color="#8C54FF" />
        </linearGradient>
    </defs>
</svg>
    