<svg width="52" height="53" viewBox="0 0 52 53" fill="none" xmlns="http://www.w3.org/2000/svg">
    <path fill-rule="evenodd" clip-rule="evenodd" d="M19.5 10.4224C19.8531 10.4224 20.1966 10.5375 20.4785 10.7502C20.7603 10.9628 20.9652 11.2615 21.0622 11.601L22.8237 17.7674C23.203 19.0954 23.9145 20.3047 24.8911 21.2813C25.8677 22.2579 27.0771 22.9694 28.405 23.3487L34.5714 25.1102C34.9107 25.2074 35.2091 25.4124 35.4215 25.6942C35.634 25.9761 35.7489 26.3194 35.7489 26.6724C35.7489 27.0253 35.634 27.3686 35.4215 27.6505C35.2091 27.9323 34.9107 28.1373 34.5714 28.2345L28.405 29.996C27.0771 30.3753 25.8677 31.0868 24.8911 32.0634C23.9145 33.04 23.203 34.2494 22.8237 35.5774L21.0622 41.7437C20.965 42.083 20.76 42.3814 20.4782 42.5938C20.1963 42.8063 19.853 42.9212 19.5 42.9212C19.1471 42.9212 18.8038 42.8063 18.5219 42.5938C18.2401 42.3814 18.0351 42.083 17.9379 41.7437L16.1764 35.5774C15.7971 34.2494 15.0856 33.04 14.109 32.0634C13.1324 31.0868 11.923 30.3753 10.595 29.996L4.42872 28.2345C4.08943 28.1373 3.791 27.9323 3.57857 27.6505C3.36613 27.3686 3.25122 27.0253 3.25122 26.6724C3.25122 26.3194 3.36613 25.9761 3.57857 25.6942C3.791 25.4124 4.08943 25.2074 4.42872 25.1102L10.595 23.3487C11.923 22.9694 13.1324 22.2579 14.109 21.2813C15.0856 20.3047 15.7971 19.0954 16.1764 17.7674L17.9379 11.601C18.0349 11.2615 18.2398 10.9628 18.5216 10.7502C18.8035 10.5375 19.147 10.4224 19.5 10.4224ZM39.0001 3.92236C39.3626 3.92216 39.7147 4.04319 40.0006 4.26618C40.2864 4.48918 40.4894 4.80135 40.5774 5.15303L41.1364 7.3977C41.6477 9.43436 43.2381 11.0247 45.2747 11.536L47.5194 12.095C47.8717 12.1823 48.1847 12.385 48.4084 12.6709C48.6321 12.9568 48.7537 13.3094 48.7537 13.6724C48.7537 14.0354 48.6321 14.3879 48.4084 14.6738C48.1847 14.9597 47.8717 15.1624 47.5194 15.2497L45.2747 15.8087C43.2381 16.32 41.6477 17.9104 41.1364 19.947L40.5774 22.1917C40.4901 22.5441 40.2874 22.857 40.0015 23.0807C39.7156 23.3045 39.3631 23.426 39.0001 23.426C38.637 23.426 38.2845 23.3045 37.9986 23.0807C37.7127 22.857 37.51 22.5441 37.4227 22.1917L36.8637 19.947C36.6137 18.947 36.0966 18.0336 35.3677 17.3047C34.6388 16.5758 33.7255 16.0587 32.7254 15.8087L30.4807 15.2497C30.1284 15.1624 29.8154 14.9597 29.5917 14.6738C29.368 14.3879 29.2464 14.0354 29.2464 13.6724C29.2464 13.3094 29.368 12.9568 29.5917 12.6709C29.8154 12.385 30.1284 12.1823 30.4807 12.095L32.7254 11.536C33.7255 11.286 34.6388 10.7689 35.3677 10.04C36.0966 9.31108 36.6137 8.39777 36.8637 7.3977L37.4227 5.15303C37.5107 4.80135 37.7137 4.48918 37.9995 4.26618C38.2854 4.04319 38.6375 3.92216 39.0001 3.92236ZM35.75 33.1724C36.0913 33.1722 36.424 33.2794 36.7009 33.4789C36.9778 33.6784 37.1849 33.9601 37.2927 34.2839L38.1464 36.847C38.4714 37.8155 39.2297 38.5782 40.2004 38.901L42.7635 39.7569C43.0863 39.8652 43.3669 40.0722 43.5657 40.3486C43.7644 40.625 43.8714 40.9569 43.8714 41.2974C43.8714 41.6378 43.7644 41.9697 43.5657 42.2461C43.3669 42.5225 43.0863 42.7295 42.7635 42.8379L40.2004 43.6937C39.2319 44.0187 38.4692 44.777 38.1464 45.7477L37.2906 48.3109C37.1822 48.6336 36.9752 48.9142 36.6988 49.113C36.4224 49.3117 36.0905 49.4187 35.75 49.4187C35.4096 49.4187 35.0777 49.3117 34.8013 49.113C34.5249 48.9142 34.3179 48.6336 34.2095 48.3109L33.3537 45.7477C33.1941 45.2695 32.9255 44.8349 32.569 44.4785C32.2125 44.122 31.7779 43.8533 31.2997 43.6937L28.7365 42.8379C28.4138 42.7295 28.1332 42.5225 27.9344 42.2461C27.7357 41.9697 27.6287 41.6378 27.6287 41.2974C27.6287 40.9569 27.7357 40.625 27.9344 40.3486C28.1332 40.0722 28.4138 39.8652 28.7365 39.7569L31.2997 38.901C32.2682 38.576 33.0309 37.8177 33.3537 36.847L34.2095 34.2839C34.3173 33.9604 34.524 33.679 34.8005 33.4796C35.0769 33.2801 35.4091 33.1726 35.75 33.1724Z" fill="url(#paint0_linear_112_136)"/>
    <defs>
    <linearGradient id="paint0_linear_112_136" x1="36.6297" y1="3.92236" x2="2.15204" y2="15.1024" gradientUnits="userSpaceOnUse">
    <stop stop-color="#B96BF1"/>
    <stop offset="1" stop-color="#8C54FF"/>
    </linearGradient>
    </defs>
    </svg>
    