<svg width="203" height="203" viewBox="0 0 203 203" fill="none" xmlns="http://www.w3.org/2000/svg">
  <path
    d="M113.291 13.2468H63.9998C52.9461 13.2468 43.9927 22.1496 43.9927 33.141V142.529C43.9927 153.52 52.9461 162.423 63.9998 162.423H138.999C150.053 162.423 159.006 153.52 159.006 142.529V58.7038C159.006 53.4289 156.894 48.3689 153.15 44.6335L127.442 19.0707C123.685 15.3353 118.596 13.2468 113.291 13.2468Z"
    fill="url(#paint0_linear_283_78)" />
  <g filter="url(#filter0_b_283_78)">
    <path
      d="M111.744 98.6046V89.0101C111.744 82.3898 106.345 77.0168 99.6919 77.0168H30.9929C24.3399 77.0168 18.9404 82.3898 18.9404 89.0101V174.186C18.9404 182.785 25.9429 189.753 34.5845 189.753H168.415C177.057 189.753 184.059 182.785 184.059 174.186V114.172C184.059 105.573 177.057 98.6046 168.415 98.6046H111.744Z"
      fill="url(#paint1_linear_283_78)" />
    <path
      d="M110.744 98.6046V99.6046H111.744H168.415C176.509 99.6046 183.059 106.13 183.059 114.172V174.186C183.059 182.228 176.509 188.753 168.415 188.753H34.5845C26.4905 188.753 19.9404 182.228 19.9404 174.186V89.0101C19.9404 82.9467 24.8876 78.0168 30.9929 78.0168H99.6919C105.797 78.0168 110.744 82.9467 110.744 89.0101V98.6046Z"
      stroke="url(#paint2_linear_283_78)" stroke-width="2" />
  </g>
  <defs>
    <filter id="filter0_b_283_78" x="0.94043" y="59.0168" width="201.119" height="148.736"
      filterUnits="userSpaceOnUse" color-interpolation-filters="sRGB">
      <feFlood flood-opacity="0" result="BackgroundImageFix" />
      <feGaussianBlur in="BackgroundImageFix" stdDeviation="9" />
      <feComposite in2="SourceAlpha" operator="in" result="effect1_backgroundBlur_283_78" />
      <feBlend mode="normal" in="SourceGraphic" in2="effect1_backgroundBlur_283_78" result="shape" />
    </filter>
    <linearGradient id="paint0_linear_283_78" x1="89.3747" y1="18.2919" x2="130.407" y2="160.313"
      gradientUnits="userSpaceOnUse">
      <stop stop-color="#0EDAFE" />
      <stop offset="1" stop-color="#0724FF" />
    </linearGradient>
    <linearGradient id="paint1_linear_283_78" x1="28.2623" y1="183.388" x2="121.405" y2="46.9681"
      gradientUnits="userSpaceOnUse">
      <stop stop-color="white" stop-opacity="0.2" />
      <stop offset="1" stop-color="white" stop-opacity="0.49" />
    </linearGradient>
    <linearGradient id="paint2_linear_283_78" x1="30.596" y1="85.8833" x2="116.279" y2="220.067"
      gradientUnits="userSpaceOnUse">
      <stop stop-color="white" />
      <stop offset="1" stop-color="white" stop-opacity="0" />
    </linearGradient>
  </defs>
</svg>