<svg width="24" height="24" viewBox="0 0 24 24" fill="none" xmlns="http://www.w3.org/2000/svg">
    <path fill-rule="evenodd" clip-rule="evenodd"
        d="M4.848 2.771C7.21613 2.4234 9.60649 2.24927 12 2.25C14.43 2.25 16.817 2.428 19.152 2.77C21.13 3.062 22.5 4.794 22.5 6.74V12.76C22.5 14.706 21.13 16.438 19.152 16.73C17.9983 16.8991 16.8389 17.0268 15.676 17.113C15.6168 17.1169 15.5593 17.1342 15.5079 17.1637C15.4564 17.1931 15.4123 17.234 15.379 17.283L12.624 21.416C12.5555 21.5187 12.4627 21.6029 12.3539 21.6612C12.245 21.7194 12.1235 21.7499 12 21.7499C11.8765 21.7499 11.755 21.7194 11.6461 21.6612C11.5373 21.6029 11.4445 21.5187 11.376 21.416L8.621 17.283C8.58768 17.234 8.54361 17.1931 8.49214 17.1637C8.44068 17.1342 8.38317 17.1169 8.324 17.113C7.16113 17.0265 6.00172 16.8984 4.848 16.729C2.87 16.439 1.5 14.705 1.5 12.759V6.741C1.5 4.795 2.87 3.061 4.848 2.771Z"
        fill="url(#paint0_linear_63_116)" />
    <defs>
        <linearGradient id="paint0_linear_63_116" x1="16.9046" y1="2.25" x2="1.23052" y2="7.72285"
            gradientUnits="userSpaceOnUse">
            <stop stop-color="#B96BF1" />
            <stop offset="1" stop-color="#8C54FF" />
        </linearGradient>
    </defs>
</svg>
    