<svg width="52" height="53" viewBox="0 0 52 53" fill="none" xmlns="http://www.w3.org/2000/svg">
  <path fill-rule="evenodd" clip-rule="evenodd"
    d="M6.5 13.6724C6.5 11.9485 7.18482 10.2952 8.40381 9.07617C9.62279 7.85718 11.2761 7.17236 13 7.17236H17.875C19.5989 7.17236 21.2522 7.85718 22.4712 9.07617C23.6902 10.2952 24.375 11.9485 24.375 13.6724V18.5474C24.375 20.2713 23.6902 21.9246 22.4712 23.1436C21.2522 24.3625 19.5989 25.0474 17.875 25.0474H13C11.2761 25.0474 9.62279 24.3625 8.40381 23.1436C7.18482 21.9246 6.5 20.2713 6.5 18.5474V13.6724ZM27.625 13.6724C27.625 11.9485 28.3098 10.2952 29.5288 9.07617C30.7478 7.85718 32.4011 7.17236 34.125 7.17236H39C40.7239 7.17236 42.3772 7.85718 43.5962 9.07617C44.8152 10.2952 45.5 11.9485 45.5 13.6724V18.5474C45.5 20.2713 44.8152 21.9246 43.5962 23.1436C42.3772 24.3625 40.7239 25.0474 39 25.0474H34.125C32.4011 25.0474 30.7478 24.3625 29.5288 23.1436C28.3098 21.9246 27.625 20.2713 27.625 18.5474V13.6724ZM6.5 34.7974C6.5 33.0735 7.18482 31.4202 8.40381 30.2012C9.62279 28.9822 11.2761 28.2974 13 28.2974H17.875C19.5989 28.2974 21.2522 28.9822 22.4712 30.2012C23.6902 31.4202 24.375 33.0735 24.375 34.7974V39.6724C24.375 41.3963 23.6902 43.0496 22.4712 44.2686C21.2522 45.4875 19.5989 46.1724 17.875 46.1724H13C11.2761 46.1724 9.62279 45.4875 8.40381 44.2686C7.18482 43.0496 6.5 41.3963 6.5 39.6724V34.7974ZM27.625 34.7974C27.625 33.0735 28.3098 31.4202 29.5288 30.2012C30.7478 28.9822 32.4011 28.2974 34.125 28.2974H39C40.7239 28.2974 42.3772 28.9822 43.5962 30.2012C44.8152 31.4202 45.5 33.0735 45.5 34.7974V39.6724C45.5 41.3963 44.8152 43.0496 43.5962 44.2686C42.3772 45.4875 40.7239 46.1724 39 46.1724H34.125C32.4011 46.1724 30.7478 45.4875 29.5288 44.2686C28.3098 43.0496 27.625 41.3963 27.625 39.6724V34.7974Z"
    fill="url(#paint0_linear_168_55)" />
  <defs>
    <linearGradient id="paint0_linear_168_55" x1="35.1086" y1="7.17236" x2="5.55714" y2="16.7536"
      gradientUnits="userSpaceOnUse">
      <stop stop-color="#B96BF1" />
      <stop offset="1" stop-color="#8C54FF" />
    </linearGradient>
  </defs>
</svg>
  