<svg width="52" height="53" viewBox="0 0 52 53" fill="none" xmlns="http://www.w3.org/2000/svg">
  <path fill-rule="evenodd" clip-rule="evenodd"
    d="M16.25 13.6724C16.25 11.0865 17.2772 8.60655 19.1057 6.77807C20.9342 4.94959 23.4141 3.92236 26 3.92236C28.5858 3.92236 31.0658 4.94959 32.8943 6.77807C34.7228 8.60655 35.75 11.0865 35.75 13.6724C35.75 16.2582 34.7228 18.7382 32.8943 20.5667C31.0658 22.3951 28.5858 23.4224 26 23.4224C23.4141 23.4224 20.9342 22.3951 19.1057 20.5667C17.2772 18.7382 16.25 16.2582 16.25 13.6724ZM8.12715 44.2332C8.20021 39.5412 10.1154 35.0662 13.4592 31.774C16.8031 28.4818 21.3074 26.6365 26 26.6365C30.6925 26.6365 35.1969 28.4818 38.5407 31.774C41.8846 35.0662 43.7998 39.5412 43.8728 44.2332C43.8785 44.5491 43.7919 44.8597 43.6237 45.1272C43.4556 45.3946 43.2131 45.6072 42.926 45.739C37.6159 48.1737 31.8417 49.4303 26 49.4224C19.9637 49.4224 14.2285 48.105 9.07398 45.739C8.78687 45.6072 8.5444 45.3946 8.37624 45.1272C8.20807 44.8597 8.12151 44.5491 8.12715 44.2332Z"
    fill="url(#paint0_linear_168_74)" />
  <defs>
    <linearGradient id="paint0_linear_168_74" x1="34.3486" y1="3.92236" x2="6.23919" y2="11.0824"
      gradientUnits="userSpaceOnUse">
      <stop stop-color="#B96BF1" />
      <stop offset="1" stop-color="#8C54FF" />
    </linearGradient>
  </defs>
</svg>
  