<svg width="52" height="53" viewBox="0 0 52 53" fill="none" xmlns="http://www.w3.org/2000/svg">
  <path
    d="M25.2287 4.11737C25.4657 3.98955 25.7307 3.92264 26 3.92264C26.2693 3.92264 26.5343 3.98955 26.7713 4.11737L47.8963 15.4924C48.1543 15.6316 48.3698 15.838 48.52 16.0898C48.6702 16.3415 48.7495 16.6292 48.7495 16.9224C48.7495 17.2155 48.6702 17.5032 48.52 17.755C48.3698 18.0067 48.1543 18.2131 47.8963 18.3524L26.7713 29.7274C26.5343 29.8552 26.2693 29.9221 26 29.9221C25.7307 29.9221 25.4657 29.8552 25.2287 29.7274L4.10366 18.3524C3.84569 18.2131 3.63018 18.0067 3.47999 17.755C3.32979 17.5032 3.25049 17.2155 3.25049 16.9224C3.25049 16.6292 3.32979 16.3415 3.47999 16.0898C3.63018 15.838 3.84569 15.6316 4.10366 15.4924L25.2287 4.11737Z"
    fill="url(#paint0_linear_168_85)" />
  <path
    d="M7.07416 23.6434L23.6882 32.5895C24.3986 32.9722 25.193 33.1726 26 33.1726C26.807 33.1726 27.6013 32.9722 28.3118 32.5895L44.9258 23.6412L47.8942 25.2424C48.1521 25.3816 48.3676 25.588 48.5178 25.8398C48.668 26.0915 48.7473 26.3792 48.7473 26.6724C48.7473 26.9655 48.668 27.2532 48.5178 27.505C48.3676 27.7567 48.1521 27.9631 47.8942 28.1024L26.7692 39.4774C26.5327 39.6044 26.2684 39.6709 26 39.6709C25.7315 39.6709 25.4673 39.6044 25.2308 39.4774L4.10582 28.1024C3.84785 27.9631 3.63235 27.7567 3.48215 27.505C3.33196 27.2532 3.25266 26.9655 3.25266 26.6724C3.25266 26.3792 3.33196 26.0915 3.48215 25.8398C3.63235 25.588 3.84785 25.3816 4.10582 25.2424L7.07416 23.6434Z"
    fill="url(#paint1_linear_168_85)" />
  <path
    d="M23.6882 42.3395L7.07416 33.3912L4.10582 34.9924C3.84785 35.1316 3.63235 35.338 3.48215 35.5898C3.33196 35.8415 3.25266 36.1292 3.25266 36.4224C3.25266 36.7155 3.33196 37.0032 3.48215 37.2549C3.63235 37.5067 3.84785 37.7131 4.10582 37.8524L25.2308 49.2274C25.7097 49.4874 26.2903 49.4874 26.7692 49.2274L47.8942 37.8524C48.1521 37.7131 48.3676 37.5067 48.5178 37.2549C48.668 37.0032 48.7473 36.7155 48.7473 36.4224C48.7473 36.1292 48.668 35.8415 48.5178 35.5898C48.3676 35.338 48.1521 35.1316 47.8942 34.9924L44.9258 33.3934L28.3118 42.3417C27.6012 42.7241 26.8067 42.924 25.9997 42.9236C25.1927 42.9233 24.3985 42.7226 23.6882 42.3395Z"
    fill="url(#paint2_linear_168_85)" />
  <defs>
    <linearGradient id="paint0_linear_168_85" x1="36.6264" y1="3.92264" x2="7.80494" y2="20.2757"
      gradientUnits="userSpaceOnUse">
      <stop stop-color="#B96BF1" />
      <stop offset="1" stop-color="#8C54FF" />
    </linearGradient>
    <linearGradient id="paint1_linear_168_85" x1="36.6254" y1="23.6412" x2="15.9966" y2="42.6237"
      gradientUnits="userSpaceOnUse">
      <stop stop-color="#B96BF1" />
      <stop offset="1" stop-color="#8C54FF" />
    </linearGradient>
    <linearGradient id="paint2_linear_168_85" x1="36.6254" y1="33.3912" x2="15.9949" y2="52.3736"
      gradientUnits="userSpaceOnUse">
      <stop stop-color="#B96BF1" />
      <stop offset="1" stop-color="#8C54FF" />
    </linearGradient>
  </defs>
</svg>
  